<?xml version="1.0" encoding="UTF-8"?>
<svg id="cdr_layer17" xmlns="http://www.w3.org/2000/svg" xmlns:xlink="http://www.w3.org/1999/xlink" viewBox="0 0 1843.11 639.56">
  <defs>
    <style>
      .cls-1 {
        fill: url(#linear-gradient-4);
      }

      .cls-1, .cls-2, .cls-3, .cls-4, .cls-5 {
        fill-rule: evenodd;
      }

      .cls-6 {
        fill: #007ab7;
      }

      .cls-2 {
        fill: url(#linear-gradient-2);
      }

      .cls-3 {
        fill: url(#linear-gradient);
      }

      .cls-4 {
        fill: url(#linear-gradient-5);
      }

      .cls-7 {
        fill: #696968;
      }

      .cls-5 {
        fill: url(#linear-gradient-3);
      }
    </style>
    <linearGradient id="linear-gradient" x1="1429.69" y1="1.06" x2="1325.56" y2="142.38" gradientUnits="userSpaceOnUse">
      <stop offset="0" stop-color="#f3af02"/>
      <stop offset="1" stop-color="#f7c400"/>
    </linearGradient>
    <linearGradient id="linear-gradient-2" x1="1326.18" y1="284.57" x2="1497.09" y2="284.57" gradientUnits="userSpaceOnUse">
      <stop offset=".19" stop-color="#009ed7"/>
      <stop offset="1" stop-color="#2b68b1"/>
    </linearGradient>
    <linearGradient id="linear-gradient-3" x1="1690.56" y1="34.2" x2="1584.56" y2="123.46" gradientUnits="userSpaceOnUse">
      <stop offset=".26" stop-color="#b21872"/>
      <stop offset=".72" stop-color="#cd1478"/>
    </linearGradient>
    <linearGradient id="linear-gradient-4" x1="1569.54" y1="284.57" x2="1740.45" y2="284.57" gradientUnits="userSpaceOnUse">
      <stop offset=".54" stop-color="#3c9936"/>
      <stop offset="1" stop-color="#5caf33"/>
    </linearGradient>
    <linearGradient id="linear-gradient-5" x1="1809.96" y1="205.37" x2="1843.11" y2="205.37" xlink:href="#linear-gradient-2"/>
  </defs>
  <path class="cls-3" d="M1326.19,243.8V33.21c0-22.76,1.87-32.53,21.67-32.53h137.78c4.49,0,19.65,2.11,5.65,23.2l-146.94,221.6c-7.33,11.07-16.68,9.51-18.17-1.68Z"/>
  <path class="cls-2" d="M1497.09,167.63v210.58c0,22.76-1.87,32.54-21.67,32.54h-137.78c-4.49,0-19.65-2.11-5.65-23.21l146.94-221.59c7.33-11.07,16.68-9.51,18.17,1.68Z"/>
  <path class="cls-5" d="M1569.54,243.8V33.21c0-22.76,1.87-32.53,21.67-32.53h137.8c4.47,0,19.64,2.11,5.65,23.2l-146.95,221.6c-7.33,11.07-16.66,9.51-18.17-1.68Z"/>
  <path class="cls-1" d="M1740.45,167.63v210.58c0,22.76-1.85,32.54-21.66,32.54h-137.8c-4.47,0-19.65-2.11-5.65-23.21l146.94-221.59c7.33-11.07,16.68-9.51,18.17,1.68Z"/>
  <path class="cls-4" d="M1843.11,19.81V398.35c0,3.36-4.19,12.39-17.79,12.39h-15.37V0h19.14c14.14-.21,14.01,16.46,14.01,19.81Z"/>
  <g>
    <g>
      <path class="cls-7" d="M404.54,557.58c-5.1,5.03-11.69,7.36-18.84,7.36-18.42,0-26.21-12.68-26.28-25.57-.07-12.96,8.35-26.14,26.28-26.14,6.73,0,13.1,2.55,18.2,7.58l-6.23,6.02c-3.26-3.19-7.65-4.67-11.97-4.67-11.97,0-17.14,8.92-17.07,17.21,.07,8.22,4.81,16.79,17.07,16.79,4.32,0,9.21-1.77,12.47-5.03l6.37,6.45Z"/>
      <path class="cls-7" d="M460.69,539.31c-.14,12.82-8.01,25.64-25.43,25.64s-25.5-12.54-25.5-25.57,8.36-26.13,25.5-26.13,25.57,13.1,25.43,26.07m-41.72,.21c.21,8.14,4.6,16.86,16.29,16.86s16.08-8.79,16.22-16.93c.14-8.36-4.53-17.71-16.22-17.71s-16.51,9.42-16.29,17.78"/>
      <rect class="cls-7" x="468.75" y="536.76" width="26.14" height="7.93"/>
      <path class="cls-7" d="M548.08,557.58c-5.1,5.03-11.69,7.36-18.84,7.36-18.42,0-26.21-12.68-26.28-25.57-.07-12.96,8.35-26.14,26.28-26.14,6.73,0,13.1,2.55,18.2,7.58l-6.23,6.02c-3.26-3.19-7.65-4.67-11.97-4.67-11.97,0-17.15,8.92-17.07,17.21,.07,8.22,4.81,16.79,17.07,16.79,4.32,0,9.21-1.77,12.47-5.03l6.37,6.45Z"/>
      <path class="cls-7" d="M599.5,563.82h-11.12l-14.45-16.57h-8.99v16.57h-9.35v-49.65c7.86,0,15.72,.07,23.59,.07,11.68,.07,17.85,7.86,17.85,16.43,0,6.8-3.12,13.67-12.55,15.58l15.02,16.93v.64Zm-34.56-40.87v15.87h14.24c5.95,0,8.5-3.97,8.5-7.94s-2.62-7.93-8.5-7.93h-14.24Z"/>
      <polygon class="cls-7" points="642.48 563.82 605.37 563.82 605.37 514.23 642.48 514.23 642.48 523.3 614.64 523.3 614.64 534.7 641.49 534.7 641.49 543.42 614.64 543.42 614.64 554.61 642.48 554.61 642.48 563.82"/>
      <path class="cls-7" d="M687.1,554.46h-25.93l-4.25,9.35h-10.12l22.24-49.59h10.2l22.25,49.59h-10.2l-4.18-9.35Zm-12.97-29.82l-9.21,21.11h18.42l-9.21-21.11Z"/>
      <polygon class="cls-7" points="712.59 522.73 696.85 522.73 696.85 514.23 737.65 514.23 737.65 522.73 721.93 522.73 721.93 563.81 712.59 563.81 712.59 522.73"/>
      <rect class="cls-7" x="745.59" y="514.23" width="9.28" height="49.58"/>
      <polygon class="cls-7" points="798.43 514.16 807.77 514.16 807.77 563.82 801.97 563.82 801.97 563.89 775.9 530.38 775.9 563.82 766.55 563.82 766.55 514.24 774.13 514.24 798.43 544.98 798.43 514.16"/>
      <path class="cls-7" d="M855.36,526.34c-3.33-3.18-8.29-4.96-12.61-4.96-10.62,0-17.07,8.08-17.07,18.28,0,8.15,4.74,16.57,17.07,16.57,3.9,0,7.3-.85,11.19-3.96v-8.78h-12.68v-8.36h21.25v20.9c-4.89,5.59-11.05,8.92-19.77,8.92-18.62,0-26.21-12.25-26.21-25.29,0-13.96,8.71-26.85,26.21-26.85,6.66,0,13.32,2.55,18.42,7.58l-5.81,5.95Z"/>
      <polygon class="cls-7" points="724.2 634.64 716.27 634.64 710.11 619.05 704.86 603.4 699.7 619.2 693.68 634.64 685.74 634.64 667.53 585.05 678.02 585.05 689.71 620.83 701.75 585.05 707.84 585.05 720.24 620.83 731.57 585.05 742.05 585.05 724.2 634.64"/>
      <rect class="cls-7" x="750.04" y="585.05" width="9.28" height="49.59"/>
      <polygon class="cls-7" points="785.38 593.55 769.66 593.55 769.66 585.05 810.46 585.05 810.46 593.55 794.73 593.55 794.73 634.64 785.38 634.64 785.38 593.55"/>
      <polygon class="cls-7" points="852.1 634.71 852.1 614.66 827.73 614.66 827.73 634.71 818.38 634.71 818.38 585.12 827.73 585.12 827.73 606.02 852.1 606.02 852.1 585.12 861.37 585.12 861.37 634.71 852.1 634.71"/>
      <path class="cls-7" d="M1256.97,586.5h-82.02c1.7,10.01,5.33,18.44,14.85,22.03,15.38,5.81,28.84,2.14,39.82-10.54,7.76,5.89,15.36,11.66,23.21,17.62-6.34,8.23-14.01,14.24-23.37,17.84-19.07,7.34-38.28,7.75-57.13-.55-16.63-7.33-27.06-20.36-31.17-37.98-5.05-21.66-2.57-42.4,11.34-60.33,13.97-18.01,33.47-23.54,55.32-20.43,22.14,3.15,36.85,16.14,44.61,37.01,4.16,11.18,5.19,22.81,4.53,35.34m-81.38-22.6h45.12c-.49-12.12-10.15-22.24-21.39-22.64-12.46-.43-22,8.55-23.73,22.64"/>
      <path class="cls-7" d="M1418.5,563.51c.99-13.47-7.1-21.36-20.72-20.95-8.91,.27-16.54,3.5-22.99,9.61-.68,.65-1.38,1.28-2.09,1.9-.08,.08-.25,.07,.12-.01-7.01-6.7-13.81-13.19-20.86-19.93,5.5-6.76,12.13-11.45,19.79-14.62,18.39-7.6,37.18-8.12,55.71-1.15,16.99,6.39,24.88,20.04,26.1,37.62,.64,9.28,.43,18.62,.47,27.94,.07,15.53,.02,31.06,.02,46.59v4.74h-34.43v-11.39c-13.99,16.28-31.02,18.02-49.33,11.87-15.54-5.23-24.22-19.33-23.53-35.94,.68-16.36,9.82-27.64,26.16-32.53,12.35-3.69,25.03-3.74,37.73-3.74h7.86Zm.23,22.04c-8.37,.45-16.56,.66-24.7,1.47-2.96,.3-5.96,1.71-8.62,3.21-4.16,2.35-5.65,6.41-5.28,11.04,.38,4.72,2.32,8.68,6.9,10.62,8.44,3.59,16.44,2.45,23.54-3.28,7.1-5.74,9.44-13.4,8.15-23.06"/>
      <path class="cls-7" d="M1514.27,635.46h-34.58v-118.8h33.84v12.92c10.75-13.77,24.57-17.21,39.94-15.88,19.17,1.66,32.24,14.63,34.51,33.77,.43,3.61,.63,7.27,.64,10.9,.05,24.04,.02,48.07,.02,72.1v4.76h-34.9v-4.74c0-21.33,0-42.67-.02-64,0-2.29-.11-4.59-.34-6.87-.69-6.84-3.11-12.82-10.07-15.32-7.33-2.63-14.46-1.7-20.57,3.42-6.11,5.12-8.45,12.03-8.46,19.8-.04,21.07-.02,42.13-.03,63.19v4.76Z"/>
      <path class="cls-7" d="M1043.08,531.24c-6.14,6.88-12.31,13.79-18.67,20.92-10.73-8.89-23.12-11.76-36.48-10.83-3.29,.23-6.83,.93-9.64,2.51-1.97,1.11-3.93,4.02-4.02,6.2-.08,1.96,1.97,5.01,3.84,5.83,4.38,1.92,9.18,2.97,13.89,4.06,9.96,2.33,20.24,3.63,29.89,6.87,14.22,4.78,22.46,15.15,22.92,30.58,.48,15.93-6.31,27.92-20.61,35.24-13.07,6.69-27.2,7.65-41.48,6.55-17.03-1.31-32.86-6.15-46.14-17.51-1.21-1.04-2.34-2.17-3.78-3.52,6.76-7.14,13.33-14.05,19.23-20.29,7.08,3.66,13.47,7.67,20.38,10.36,8.25,3.23,17.14,3.54,25.96,2.66,2.12-.21,4.25-.84,6.26-1.58,3.52-1.31,6.13-3.65,6.17-7.68,.05-3.94-2.51-6.41-5.95-7.3-6.77-1.74-13.76-2.67-20.52-4.46-8.82-2.33-17.92-4.26-26.16-8-12.64-5.74-18.3-16.76-18.27-30.47,.03-13.88,6.3-24.49,18.54-31.01,17.06-9.08,35.27-9.13,53.66-5.36,12.57,2.58,24.75,9.18,30.97,16.22"/>
      <path class="cls-7" d="M1343,474.02c-1.86,8.39-3.68,16.64-5.6,25.3-2.82-.36-5.43-.79-8.06-1.03-13.35-1.27-18.45,4.1-16.66,17.93h27.65v28.51h-27.95v90.65h-34.87c0-30.04-.15-123.31-.12-125.3,.28-22.12,11.08-35.11,32.86-38.72,10.89-1.81,21.74-.81,32.74,2.67"/>
      <rect class="cls-7" x="1614.2" y="516.65" width="34.38" height="118.72"/>
      <path class="cls-7" d="M1708.8,635.46h-34.58v-118.8h33.84v12.92c10.75-13.77,24.57-17.21,39.94-15.88,19.17,1.66,32.24,14.63,34.51,33.77,.43,3.61,.63,7.27,.64,10.9,.05,24.04,.02,48.07,.02,72.1v4.76h-34.9v-4.74c0-21.33,0-42.67-.02-64,0-2.29-.11-4.59-.34-6.87-.69-6.84-3.11-12.82-10.07-15.32-7.33-2.63-14.46-1.7-20.57,3.42-6.11,5.12-8.45,12.03-8.46,19.8-.04,21.07-.02,42.13-.03,63.19v4.76Z"/>
      <rect class="cls-7" x="1808.73" y="516.65" width="34.38" height="118.72"/>
      <path class="cls-7" d="M1125.17,607.87c2.36,9.15,4.63,17.94,7,27.15-12.48,3.81-24.94,5.42-37.62,3.66-4.77-.67-9.67-2.03-13.99-4.15-12.32-6.05-16.59-17.13-16.76-30.01-.25-18.39-.08-36.78-.09-55.17,0-1.27-.09-43.39-.11-61.98,0-4.02,2.57-7.58,6.38-8.86,9.38-3.16,17.54-5.84,29.01-10.25v47.51h29.08v28.6h-28.71c-.14,1.66-.32,2.83-.32,4-.02,14.85,0,29.7,0,44.55,0,.41,0,.82,.02,1.23,.42,13.09,4.96,16.92,18.04,15.14,2.54-.35,5.06-.88,8.1-1.42"/>
    </g>
    <path class="cls-6" d="M1131.21,6.81l-51.88,240.28c-3.06-11.97-6.79-26.2-11.05-42.45-4.26-16.36-8.77-33.65-13.57-52.01-4.79-18.36-9.57-36.59-14.36-54.82-4.8-18.21-9.33-35.13-13.44-50.81-4.13-15.71-7.72-29.15-10.65-40.19h-102.18c-2.93,11.04-6.51,24.48-10.65,40.19-4.12,15.68-8.63,32.6-13.43,50.81-4.78,18.23-9.57,36.46-14.37,54.82-4.78,18.36-9.31,35.65-13.56,52.01-4.27,16.24-7.99,30.48-11.05,42.45L799.12,6.81h-145.29l15.88,44.77c.16,.17,.31,.34,.47,.51l-.18,.3-.29-.81c-3.84-4.05-7.88-7.95-12.16-11.65-14.37-12.36-31.41-21.95-50.96-28.87-19.7-7.05-42.18-10.51-67.31-10.64-32.87,.13-60.95,5.45-84.1,16.09-23.28,10.51-42.18,25.29-56.67,44.18-10.87,14.16-19.64,30.11-26.16,47.91l-.14,.05c-3.46-10.44-7.87-20.22-13.24-29.34-14.91-25.15-35.92-44.43-63.34-57.88C268.22,8.15,235.64,1.35,197.98,1.23c-21.83,.13-42.45,1.72-62,4.78-19.43,3.19-37.39,7.05-53.62,11.58-16.37,4.64-30.47,9.31-42.57,13.97-11.98,4.64-21.56,8.64-28.34,11.96-6.92,3.33-10.79,5.18-11.45,5.6V405.15H137.32V109.79c5.85-1.59,12.11-2.8,18.49-3.6,6.38-.79,13.57-1.19,21.41-1.19,15.58,.13,27.95,1.46,37.13,4.25,9.04,2.8,15.83,6.39,20.08,10.78,4.26,4.39,7.06,9.18,8.26,14.24,1.19,5.04,1.73,9.98,1.59,14.64V405.15h137.3v-78.69c-.07-.12-.13-.25-.19-.37,.06-.03,.13-.07,.19-.1v.47c5.43,10.15,11.59,19.17,18.52,27.07,13.17,15.03,28.08,26.74,44.44,35.13,16.5,8.39,33.4,14.1,50.83,17.44,17.42,3.18,34.19,4.79,50.29,4.65,30.74,0,59.2-3.6,85.42-10.64,26.21-6.92,49.89-17.29,71.04-30.86v-96.59c-9.31,5.71-19.95,10.77-32.06,15.56-12.23,4.66-25.95,8.38-41.39,11.18-15.43,2.93-32.73,4.25-51.88,4.39-10.52,0-20.76-1.73-30.86-4.93-10.12-3.33-19.17-7.84-27.41-13.83-8.24-6-14.76-12.92-19.7-21.03-4.79-7.99-7.32-16.9-7.45-26.47h226.71c1.59-12.7,2.4-26.97,2.4-42.82l74.65,210.46h120.54l49.5-178.81,49.49,178.81h120.54L1276.5,6.81h-145.29ZM494.57,155.29c.4-8.26,1.72-16.37,3.85-24.48,2.13-7.99,5.06-15.16,8.92-21.68,3.85-6.52,8.37-11.84,13.7-15.7,5.31-3.85,11.44-5.85,18.23-5.98,7.05,.13,13.16,2.52,18.49,7.04,5.46,4.53,9.98,10.25,13.7,17.29,3.87,7.06,6.65,14.37,8.78,22.1,2.13,7.72,3.33,14.89,3.72,21.41h-89.4Z"/>
  </g>
</svg>